# xmcd
# 
# Track frame offsets:
#     150
#     16081
#     28178
#     50668
#     62228
# 
# Disc length: 1059
# 
# Revision: 0
# Processed by: cddbd v1.5.2PL0 Copyright (c) Steve Scherf et al.
# Submitted via: fre:ac v1.0.17
# 
DISCID=3d042105
DTITLE=Burden Of Proof - Moonstruck EP
DYEAR=2007
DGENRE=Rock
TTITLE0=Premonition
TTITLE1=Standing, Sitting, Kneeling
TTITLE2=Blank
TTITLE3=Meant To Smile
TTITLE4=In To The Sun
EXTD=
EXTT0=
EXTT1=
EXTT2=
EXTT3=
EXTT4=
PLAYORDER=
